<svg width="393" height="238" viewBox="0 0 393 238" fill="none" xmlns="http://www.w3.org/2000/svg">
<g clip-path="url(#clip0_2579_29322)">
<rect width="393" height="238" fill="#030531"/>
<g opacity="0.4">
<circle cx="8" cy="1" r="1" fill="#21F2C0"/>
<circle cx="22" cy="1" r="1" fill="#21F2C0"/>
<circle cx="36" cy="1" r="1" fill="#21F2C0"/>
<circle cx="50" cy="1" r="1" fill="#21F2C0"/>
<circle cx="64" cy="1" r="1" fill="#21F2C0"/>
<circle cx="78" cy="1" r="1" fill="#21F2C0"/>
<circle cx="92" cy="1" r="1" fill="#21F2C0"/>
<circle cx="106" cy="1" r="1" fill="#21F2C0"/>
<circle cx="120" cy="1" r="1" fill="#21F2C0"/>
<circle cx="134" cy="1" r="1" fill="#21F2C0"/>
<circle cx="148" cy="1" r="1" fill="#21F2C0"/>
<circle cx="162" cy="1" r="1" fill="#21F2C0"/>
<circle cx="176" cy="1" r="1" fill="#21F2C0"/>
<circle cx="190" cy="1" r="1" fill="#21F2C0"/>
<circle cx="204" cy="1" r="1" fill="#21F2C0"/>
<circle cx="218" cy="1" r="1" fill="#21F2C0"/>
<circle cx="232" cy="1" r="1" fill="#21F2C0"/>
<circle cx="246" cy="1" r="1" fill="#21F2C0"/>
<circle cx="260" cy="1" r="1" fill="#21F2C0"/>
<circle cx="274" cy="1" r="1" fill="#21F2C0"/>
<circle cx="288" cy="1" r="1" fill="#21F2C0"/>
<circle cx="302" cy="1" r="1" fill="#21F2C0"/>
<circle cx="316" cy="1" r="1" fill="#21F2C0"/>
<circle cx="330" cy="1" r="1" fill="#21F2C0"/>
<circle cx="344" cy="1" r="1" fill="#21F2C0"/>
<circle cx="358" cy="1" r="1" fill="#21F2C0"/>
<circle cx="372" cy="1" r="1" fill="#21F2C0"/>
<circle cx="386" cy="1" r="1" fill="#21F2C0"/>
<circle cx="8" cy="15" r="1" fill="#21F2C0"/>
<circle cx="22" cy="15" r="1" fill="#21F2C0"/>
<circle cx="36" cy="15" r="1" fill="#21F2C0"/>
<circle cx="50" cy="15" r="1" fill="#21F2C0"/>
<circle cx="64" cy="15" r="1" fill="#21F2C0"/>
<circle cx="78" cy="15" r="1" fill="#21F2C0"/>
<circle cx="92" cy="15" r="1" fill="#21F2C0"/>
<circle cx="106" cy="15" r="1" fill="#21F2C0"/>
<circle cx="120" cy="15" r="1" fill="#21F2C0"/>
<circle cx="134" cy="15" r="1" fill="#21F2C0"/>
<circle cx="148" cy="15" r="1" fill="#21F2C0"/>
<circle cx="162" cy="15" r="1" fill="#21F2C0"/>
<circle cx="176" cy="15" r="1" fill="#21F2C0"/>
<circle cx="190" cy="15" r="1" fill="#21F2C0"/>
<circle cx="204" cy="15" r="1" fill="#21F2C0"/>
<circle cx="218" cy="15" r="1" fill="#21F2C0"/>
<circle cx="232" cy="15" r="1" fill="#21F2C0"/>
<circle cx="246" cy="15" r="1" fill="#21F2C0"/>
<circle cx="260" cy="15" r="1" fill="#21F2C0"/>
<circle cx="274" cy="15" r="1" fill="#21F2C0"/>
<circle cx="288" cy="15" r="1" fill="#21F2C0"/>
<circle cx="302" cy="15" r="1" fill="#21F2C0"/>
<circle cx="316" cy="15" r="1" fill="#21F2C0"/>
<circle cx="330" cy="15" r="1" fill="#21F2C0"/>
<circle cx="344" cy="15" r="1" fill="#21F2C0"/>
<circle cx="358" cy="15" r="1" fill="#21F2C0"/>
<circle cx="372" cy="15" r="1" fill="#21F2C0"/>
<circle cx="386" cy="15" r="1" fill="#21F2C0"/>
<circle cx="8" cy="29" r="1" fill="#21F2C0"/>
<circle cx="22" cy="29" r="1" fill="#21F2C0"/>
<circle cx="36" cy="29" r="1" fill="#21F2C0"/>
<circle cx="50" cy="29" r="1" fill="#21F2C0"/>
<circle cx="64" cy="29" r="1" fill="#21F2C0"/>
<circle cx="78" cy="29" r="1" fill="#21F2C0"/>
<circle cx="92" cy="29" r="1" fill="#21F2C0"/>
<circle cx="106" cy="29" r="1" fill="#21F2C0"/>
<circle cx="120" cy="29" r="1" fill="#21F2C0"/>
<circle cx="134" cy="29" r="1" fill="#21F2C0"/>
<circle cx="148" cy="29" r="1" fill="#21F2C0"/>
<circle cx="162" cy="29" r="1" fill="#21F2C0"/>
<circle cx="176" cy="29" r="1" fill="#21F2C0"/>
<circle cx="190" cy="29" r="1" fill="#21F2C0"/>
<circle cx="204" cy="29" r="1" fill="#21F2C0"/>
<circle cx="218" cy="29" r="1" fill="#21F2C0"/>
<circle cx="232" cy="29" r="1" fill="#21F2C0"/>
<circle cx="246" cy="29" r="1" fill="#21F2C0"/>
<circle cx="260" cy="29" r="1" fill="#21F2C0"/>
<circle cx="274" cy="29" r="1" fill="#21F2C0"/>
<circle cx="288" cy="29" r="1" fill="#21F2C0"/>
<circle cx="302" cy="29" r="1" fill="#21F2C0"/>
<circle cx="316" cy="29" r="1" fill="#21F2C0"/>
<circle cx="330" cy="29" r="1" fill="#21F2C0"/>
<circle cx="344" cy="29" r="1" fill="#21F2C0"/>
<circle cx="358" cy="29" r="1" fill="#21F2C0"/>
<circle cx="372" cy="29" r="1" fill="#21F2C0"/>
<circle cx="386" cy="29" r="1" fill="#21F2C0"/>
<circle cx="8" cy="43" r="1" fill="#21F2C0"/>
<circle cx="22" cy="43" r="1" fill="#21F2C0"/>
<circle cx="36" cy="43" r="1" fill="#21F2C0"/>
<circle cx="50" cy="43" r="1" fill="#21F2C0"/>
<circle cx="64" cy="43" r="1" fill="#21F2C0"/>
<circle cx="78" cy="43" r="1" fill="#21F2C0"/>
<circle cx="92" cy="43" r="1" fill="#21F2C0"/>
<circle cx="106" cy="43" r="1" fill="#21F2C0"/>
<circle cx="120" cy="43" r="1" fill="#21F2C0"/>
<circle cx="134" cy="43" r="1" fill="#21F2C0"/>
<circle cx="148" cy="43" r="1" fill="#21F2C0"/>
<circle cx="162" cy="43" r="1" fill="#21F2C0"/>
<circle cx="176" cy="43" r="1" fill="#21F2C0"/>
<circle cx="190" cy="43" r="1" fill="#21F2C0"/>
<circle cx="204" cy="43" r="1" fill="#21F2C0"/>
<circle cx="218" cy="43" r="1" fill="#21F2C0"/>
<circle cx="232" cy="43" r="1" fill="#21F2C0"/>
<circle cx="246" cy="43" r="1" fill="#21F2C0"/>
<circle cx="260" cy="43" r="1" fill="#21F2C0"/>
<circle cx="274" cy="43" r="1" fill="#21F2C0"/>
<circle cx="288" cy="43" r="1" fill="#21F2C0"/>
<circle cx="302" cy="43" r="1" fill="#21F2C0"/>
<circle cx="316" cy="43" r="1" fill="#21F2C0"/>
<circle cx="330" cy="43" r="1" fill="#21F2C0"/>
<circle cx="344" cy="43" r="1" fill="#21F2C0"/>
<circle cx="358" cy="43" r="1" fill="#21F2C0"/>
<circle cx="372" cy="43" r="1" fill="#21F2C0"/>
<circle cx="386" cy="43" r="1" fill="#21F2C0"/>
<circle cx="8" cy="57" r="1" fill="#21F2C0"/>
<circle cx="22" cy="57" r="1" fill="#21F2C0"/>
<circle cx="36" cy="57" r="1" fill="#21F2C0"/>
<circle cx="50" cy="57" r="1" fill="#21F2C0"/>
<circle cx="64" cy="57" r="1" fill="#21F2C0"/>
<circle cx="78" cy="57" r="1" fill="#21F2C0"/>
<circle cx="92" cy="57" r="1" fill="#21F2C0"/>
<circle cx="106" cy="57" r="1" fill="#21F2C0"/>
<circle cx="120" cy="57" r="1" fill="#21F2C0"/>
<circle cx="134" cy="57" r="1" fill="#21F2C0"/>
<circle cx="148" cy="57" r="1" fill="#21F2C0"/>
<circle cx="162" cy="57" r="1" fill="#21F2C0"/>
<circle cx="176" cy="57" r="1" fill="#21F2C0"/>
<circle cx="190" cy="57" r="1" fill="#21F2C0"/>
<circle cx="204" cy="57" r="1" fill="#21F2C0"/>
<circle cx="218" cy="57" r="1" fill="#21F2C0"/>
<circle cx="232" cy="57" r="1" fill="#21F2C0"/>
<circle cx="246" cy="57" r="1" fill="#21F2C0"/>
<circle cx="260" cy="57" r="1" fill="#21F2C0"/>
<circle cx="274" cy="57" r="1" fill="#21F2C0"/>
<circle cx="288" cy="57" r="1" fill="#21F2C0"/>
<circle cx="302" cy="57" r="1" fill="#21F2C0"/>
<circle cx="316" cy="57" r="1" fill="#21F2C0"/>
<circle cx="330" cy="57" r="1" fill="#21F2C0"/>
<circle cx="344" cy="57" r="1" fill="#21F2C0"/>
<circle cx="358" cy="57" r="1" fill="#21F2C0"/>
<circle cx="372" cy="57" r="1" fill="#21F2C0"/>
<circle cx="386" cy="57" r="1" fill="#21F2C0"/>
<circle cx="8" cy="71" r="1" fill="#21F2C0"/>
<circle cx="22" cy="71" r="1" fill="#21F2C0"/>
<circle cx="36" cy="71" r="1" fill="#21F2C0"/>
<circle cx="50" cy="71" r="1" fill="#21F2C0"/>
<circle cx="64" cy="71" r="1" fill="#21F2C0"/>
<circle cx="78" cy="71" r="1" fill="#21F2C0"/>
<circle cx="92" cy="71" r="1" fill="#21F2C0"/>
<circle cx="106" cy="71" r="1" fill="#21F2C0"/>
<circle cx="120" cy="71" r="1" fill="#21F2C0"/>
<circle cx="134" cy="71" r="1" fill="#21F2C0"/>
<circle cx="148" cy="71" r="1" fill="#21F2C0"/>
<circle cx="162" cy="71" r="1" fill="#21F2C0"/>
<circle cx="176" cy="71" r="1" fill="#21F2C0"/>
<circle cx="190" cy="71" r="1" fill="#21F2C0"/>
<circle cx="204" cy="71" r="1" fill="#21F2C0"/>
<circle cx="218" cy="71" r="1" fill="#21F2C0"/>
<circle cx="232" cy="71" r="1" fill="#21F2C0"/>
<circle cx="246" cy="71" r="1" fill="#21F2C0"/>
<circle cx="260" cy="71" r="1" fill="#21F2C0"/>
<circle cx="274" cy="71" r="1" fill="#21F2C0"/>
<circle cx="288" cy="71" r="1" fill="#21F2C0"/>
<circle cx="302" cy="71" r="1" fill="#21F2C0"/>
<circle cx="316" cy="71" r="1" fill="#21F2C0"/>
<circle cx="330" cy="71" r="1" fill="#21F2C0"/>
<circle cx="344" cy="71" r="1" fill="#21F2C0"/>
<circle cx="358" cy="71" r="1" fill="#21F2C0"/>
<circle cx="372" cy="71" r="1" fill="#21F2C0"/>
<circle cx="386" cy="71" r="1" fill="#21F2C0"/>
<circle cx="8" cy="85" r="1" fill="#21F2C0"/>
<circle cx="22" cy="85" r="1" fill="#21F2C0"/>
<circle cx="36" cy="85" r="1" fill="#21F2C0"/>
<circle cx="50" cy="85" r="1" fill="#21F2C0"/>
<circle cx="64" cy="85" r="1" fill="#21F2C0"/>
<circle cx="78" cy="85" r="1" fill="#21F2C0"/>
<circle cx="92" cy="85" r="1" fill="#21F2C0"/>
<circle cx="106" cy="85" r="1" fill="#21F2C0"/>
<circle cx="120" cy="85" r="1" fill="#21F2C0"/>
<circle cx="134" cy="85" r="1" fill="#21F2C0"/>
<circle cx="148" cy="85" r="1" fill="#21F2C0"/>
<circle cx="162" cy="85" r="1" fill="#21F2C0"/>
<circle cx="176" cy="85" r="1" fill="#21F2C0"/>
<circle cx="190" cy="85" r="1" fill="#21F2C0"/>
<circle cx="204" cy="85" r="1" fill="#21F2C0"/>
<circle cx="218" cy="85" r="1" fill="#21F2C0"/>
<circle cx="232" cy="85" r="1" fill="#21F2C0"/>
<circle cx="246" cy="85" r="1" fill="#21F2C0"/>
<circle cx="260" cy="85" r="1" fill="#21F2C0"/>
<circle cx="274" cy="85" r="1" fill="#21F2C0"/>
<circle cx="288" cy="85" r="1" fill="#21F2C0"/>
<circle cx="302" cy="85" r="1" fill="#21F2C0"/>
<circle cx="316" cy="85" r="1" fill="#21F2C0"/>
<circle cx="330" cy="85" r="1" fill="#21F2C0"/>
<circle cx="344" cy="85" r="1" fill="#21F2C0"/>
<circle cx="358" cy="85" r="1" fill="#21F2C0"/>
<circle cx="372" cy="85" r="1" fill="#21F2C0"/>
<circle cx="386" cy="85" r="1" fill="#21F2C0"/>
<circle cx="8" cy="99" r="1" fill="#21F2C0"/>
<circle cx="22" cy="99" r="1" fill="#21F2C0"/>
<circle cx="36" cy="99" r="1" fill="#21F2C0"/>
<circle cx="50" cy="99" r="1" fill="#21F2C0"/>
<circle cx="64" cy="99" r="1" fill="#21F2C0"/>
<circle cx="78" cy="99" r="1" fill="#21F2C0"/>
<circle cx="92" cy="99" r="1" fill="#21F2C0"/>
<circle cx="106" cy="99" r="1" fill="#21F2C0"/>
<circle cx="120" cy="99" r="1" fill="#21F2C0"/>
<circle cx="134" cy="99" r="1" fill="#21F2C0"/>
<circle cx="148" cy="99" r="1" fill="#21F2C0"/>
<circle cx="162" cy="99" r="1" fill="#21F2C0"/>
<circle cx="176" cy="99" r="1" fill="#21F2C0"/>
<circle cx="190" cy="99" r="1" fill="#21F2C0"/>
<circle cx="204" cy="99" r="1" fill="#21F2C0"/>
<circle cx="218" cy="99" r="1" fill="#21F2C0"/>
<circle cx="232" cy="99" r="1" fill="#21F2C0"/>
<circle cx="246" cy="99" r="1" fill="#21F2C0"/>
<circle cx="260" cy="99" r="1" fill="#21F2C0"/>
<circle cx="274" cy="99" r="1" fill="#21F2C0"/>
<circle cx="288" cy="99" r="1" fill="#21F2C0"/>
<circle cx="302" cy="99" r="1" fill="#21F2C0"/>
<circle cx="316" cy="99" r="1" fill="#21F2C0"/>
<circle cx="330" cy="99" r="1" fill="#21F2C0"/>
<circle cx="344" cy="99" r="1" fill="#21F2C0"/>
<circle cx="358" cy="99" r="1" fill="#21F2C0"/>
<circle cx="372" cy="99" r="1" fill="#21F2C0"/>
<circle cx="386" cy="99" r="1" fill="#21F2C0"/>
<circle cx="8" cy="113" r="1" fill="#21F2C0"/>
<circle cx="22" cy="113" r="1" fill="#21F2C0"/>
<circle cx="36" cy="113" r="1" fill="#21F2C0"/>
<circle cx="50" cy="113" r="1" fill="#21F2C0"/>
<circle cx="64" cy="113" r="1" fill="#21F2C0"/>
<circle cx="78" cy="113" r="1" fill="#21F2C0"/>
<circle cx="92" cy="113" r="1" fill="#21F2C0"/>
<circle cx="106" cy="113" r="1" fill="#21F2C0"/>
<circle cx="120" cy="113" r="1" fill="#21F2C0"/>
<circle cx="134" cy="113" r="1" fill="#21F2C0"/>
<circle cx="148" cy="113" r="1" fill="#21F2C0"/>
<circle cx="162" cy="113" r="1" fill="#21F2C0"/>
<circle cx="176" cy="113" r="1" fill="#21F2C0"/>
<circle cx="190" cy="113" r="1" fill="#21F2C0"/>
<circle cx="204" cy="113" r="1" fill="#21F2C0"/>
<circle cx="218" cy="113" r="1" fill="#21F2C0"/>
<circle cx="232" cy="113" r="1" fill="#21F2C0"/>
<circle cx="246" cy="113" r="1" fill="#21F2C0"/>
<circle cx="260" cy="113" r="1" fill="#21F2C0"/>
<circle cx="274" cy="113" r="1" fill="#21F2C0"/>
<circle cx="288" cy="113" r="1" fill="#21F2C0"/>
<circle cx="302" cy="113" r="1" fill="#21F2C0"/>
<circle cx="316" cy="113" r="1" fill="#21F2C0"/>
<circle cx="330" cy="113" r="1" fill="#21F2C0"/>
<circle cx="344" cy="113" r="1" fill="#21F2C0"/>
<circle cx="358" cy="113" r="1" fill="#21F2C0"/>
<circle cx="372" cy="113" r="1" fill="#21F2C0"/>
<circle cx="386" cy="113" r="1" fill="#21F2C0"/>
<circle cx="8" cy="127" r="1" fill="#21F2C0"/>
<circle cx="22" cy="127" r="1" fill="#21F2C0"/>
<circle cx="36" cy="127" r="1" fill="#21F2C0"/>
<circle cx="50" cy="127" r="1" fill="#21F2C0"/>
<circle cx="64" cy="127" r="1" fill="#21F2C0"/>
<circle cx="78" cy="127" r="1" fill="#21F2C0"/>
<circle cx="92" cy="127" r="1" fill="#21F2C0"/>
<circle cx="106" cy="127" r="1" fill="#21F2C0"/>
<circle cx="120" cy="127" r="1" fill="#21F2C0"/>
<circle cx="134" cy="127" r="1" fill="#21F2C0"/>
<circle cx="148" cy="127" r="1" fill="#21F2C0"/>
<circle cx="162" cy="127" r="1" fill="#21F2C0"/>
<circle cx="176" cy="127" r="1" fill="#21F2C0"/>
<circle cx="190" cy="127" r="1" fill="#21F2C0"/>
<circle cx="204" cy="127" r="1" fill="#21F2C0"/>
<circle cx="218" cy="127" r="1" fill="#21F2C0"/>
<circle cx="232" cy="127" r="1" fill="#21F2C0"/>
<circle cx="246" cy="127" r="1" fill="#21F2C0"/>
<circle cx="260" cy="127" r="1" fill="#21F2C0"/>
<circle cx="274" cy="127" r="1" fill="#21F2C0"/>
<circle cx="288" cy="127" r="1" fill="#21F2C0"/>
<circle cx="302" cy="127" r="1" fill="#21F2C0"/>
<circle cx="316" cy="127" r="1" fill="#21F2C0"/>
<circle cx="330" cy="127" r="1" fill="#21F2C0"/>
<circle cx="344" cy="127" r="1" fill="#21F2C0"/>
<circle cx="358" cy="127" r="1" fill="#21F2C0"/>
<circle cx="372" cy="127" r="1" fill="#21F2C0"/>
<circle cx="386" cy="127" r="1" fill="#21F2C0"/>
<circle cx="8" cy="141" r="1" fill="#21F2C0"/>
<circle cx="22" cy="141" r="1" fill="#21F2C0"/>
<circle cx="36" cy="141" r="1" fill="#21F2C0"/>
<circle cx="50" cy="141" r="1" fill="#21F2C0"/>
<circle cx="64" cy="141" r="1" fill="#21F2C0"/>
<circle cx="78" cy="141" r="1" fill="#21F2C0"/>
<circle cx="92" cy="141" r="1" fill="#21F2C0"/>
<circle cx="106" cy="141" r="1" fill="#21F2C0"/>
<circle cx="120" cy="141" r="1" fill="#21F2C0"/>
<circle cx="134" cy="141" r="1" fill="#21F2C0"/>
<circle cx="148" cy="141" r="1" fill="#21F2C0"/>
<circle cx="162" cy="141" r="1" fill="#21F2C0"/>
<circle cx="176" cy="141" r="1" fill="#21F2C0"/>
<circle cx="190" cy="141" r="1" fill="#21F2C0"/>
<circle cx="204" cy="141" r="1" fill="#21F2C0"/>
<circle cx="218" cy="141" r="1" fill="#21F2C0"/>
<circle cx="232" cy="141" r="1" fill="#21F2C0"/>
<circle cx="246" cy="141" r="1" fill="#21F2C0"/>
<circle cx="260" cy="141" r="1" fill="#21F2C0"/>
<circle cx="274" cy="141" r="1" fill="#21F2C0"/>
<circle cx="288" cy="141" r="1" fill="#21F2C0"/>
<circle cx="302" cy="141" r="1" fill="#21F2C0"/>
<circle cx="316" cy="141" r="1" fill="#21F2C0"/>
<circle cx="330" cy="141" r="1" fill="#21F2C0"/>
<circle cx="344" cy="141" r="1" fill="#21F2C0"/>
<circle cx="358" cy="141" r="1" fill="#21F2C0"/>
<circle cx="372" cy="141" r="1" fill="#21F2C0"/>
<circle cx="386" cy="141" r="1" fill="#21F2C0"/>
<circle cx="8" cy="155" r="1" fill="#21F2C0"/>
<circle cx="22" cy="155" r="1" fill="#21F2C0"/>
<circle cx="36" cy="155" r="1" fill="#21F2C0"/>
<circle cx="50" cy="155" r="1" fill="#21F2C0"/>
<circle cx="64" cy="155" r="1" fill="#21F2C0"/>
<circle cx="78" cy="155" r="1" fill="#21F2C0"/>
<circle cx="92" cy="155" r="1" fill="#21F2C0"/>
<circle cx="106" cy="155" r="1" fill="#21F2C0"/>
<circle cx="120" cy="155" r="1" fill="#21F2C0"/>
<circle cx="134" cy="155" r="1" fill="#21F2C0"/>
<circle cx="148" cy="155" r="1" fill="#21F2C0"/>
<circle cx="162" cy="155" r="1" fill="#21F2C0"/>
<circle cx="176" cy="155" r="1" fill="#21F2C0"/>
<circle cx="190" cy="155" r="1" fill="#21F2C0"/>
<circle cx="204" cy="155" r="1" fill="#21F2C0"/>
<circle cx="218" cy="155" r="1" fill="#21F2C0"/>
<circle cx="232" cy="155" r="1" fill="#21F2C0"/>
<circle cx="246" cy="155" r="1" fill="#21F2C0"/>
<circle cx="260" cy="155" r="1" fill="#21F2C0"/>
<circle cx="274" cy="155" r="1" fill="#21F2C0"/>
<circle cx="288" cy="155" r="1" fill="#21F2C0"/>
<circle cx="302" cy="155" r="1" fill="#21F2C0"/>
<circle cx="316" cy="155" r="1" fill="#21F2C0"/>
<circle cx="330" cy="155" r="1" fill="#21F2C0"/>
<circle cx="344" cy="155" r="1" fill="#21F2C0"/>
<circle cx="358" cy="155" r="1" fill="#21F2C0"/>
<circle cx="372" cy="155" r="1" fill="#21F2C0"/>
<circle cx="386" cy="155" r="1" fill="#21F2C0"/>
<circle cx="8" cy="169" r="1" fill="#21F2C0"/>
<circle cx="22" cy="169" r="1" fill="#21F2C0"/>
<circle cx="36" cy="169" r="1" fill="#21F2C0"/>
<circle cx="50" cy="169" r="1" fill="#21F2C0"/>
<circle cx="64" cy="169" r="1" fill="#21F2C0"/>
<circle cx="78" cy="169" r="1" fill="#21F2C0"/>
<circle cx="92" cy="169" r="1" fill="#21F2C0"/>
<circle cx="106" cy="169" r="1" fill="#21F2C0"/>
<circle cx="120" cy="169" r="1" fill="#21F2C0"/>
<circle cx="134" cy="169" r="1" fill="#21F2C0"/>
<circle cx="148" cy="169" r="1" fill="#21F2C0"/>
<circle cx="162" cy="169" r="1" fill="#21F2C0"/>
<circle cx="176" cy="169" r="1" fill="#21F2C0"/>
<circle cx="190" cy="169" r="1" fill="#21F2C0"/>
<circle cx="204" cy="169" r="1" fill="#21F2C0"/>
<circle cx="218" cy="169" r="1" fill="#21F2C0"/>
<circle cx="232" cy="169" r="1" fill="#21F2C0"/>
<circle cx="246" cy="169" r="1" fill="#21F2C0"/>
<circle cx="260" cy="169" r="1" fill="#21F2C0"/>
<circle cx="274" cy="169" r="1" fill="#21F2C0"/>
<circle cx="288" cy="169" r="1" fill="#21F2C0"/>
<circle cx="302" cy="169" r="1" fill="#21F2C0"/>
<circle cx="316" cy="169" r="1" fill="#21F2C0"/>
<circle cx="330" cy="169" r="1" fill="#21F2C0"/>
<circle cx="344" cy="169" r="1" fill="#21F2C0"/>
<circle cx="358" cy="169" r="1" fill="#21F2C0"/>
<circle cx="372" cy="169" r="1" fill="#21F2C0"/>
<circle cx="386" cy="169" r="1" fill="#21F2C0"/>
<circle cx="8" cy="183" r="1" fill="#21F2C0"/>
<circle cx="22" cy="183" r="1" fill="#21F2C0"/>
<circle cx="36" cy="183" r="1" fill="#21F2C0"/>
<circle cx="50" cy="183" r="1" fill="#21F2C0"/>
<circle cx="64" cy="183" r="1" fill="#21F2C0"/>
<circle cx="78" cy="183" r="1" fill="#21F2C0"/>
<circle cx="92" cy="183" r="1" fill="#21F2C0"/>
<circle cx="106" cy="183" r="1" fill="#21F2C0"/>
<circle cx="120" cy="183" r="1" fill="#21F2C0"/>
<circle cx="134" cy="183" r="1" fill="#21F2C0"/>
<circle cx="148" cy="183" r="1" fill="#21F2C0"/>
<circle cx="162" cy="183" r="1" fill="#21F2C0"/>
<circle cx="176" cy="183" r="1" fill="#21F2C0"/>
<circle cx="190" cy="183" r="1" fill="#21F2C0"/>
<circle cx="204" cy="183" r="1" fill="#21F2C0"/>
<circle cx="218" cy="183" r="1" fill="#21F2C0"/>
<circle cx="232" cy="183" r="1" fill="#21F2C0"/>
<circle cx="246" cy="183" r="1" fill="#21F2C0"/>
<circle cx="260" cy="183" r="1" fill="#21F2C0"/>
<circle cx="274" cy="183" r="1" fill="#21F2C0"/>
<circle cx="288" cy="183" r="1" fill="#21F2C0"/>
<circle cx="302" cy="183" r="1" fill="#21F2C0"/>
<circle cx="316" cy="183" r="1" fill="#21F2C0"/>
<circle cx="330" cy="183" r="1" fill="#21F2C0"/>
<circle cx="344" cy="183" r="1" fill="#21F2C0"/>
<circle cx="358" cy="183" r="1" fill="#21F2C0"/>
<circle cx="372" cy="183" r="1" fill="#21F2C0"/>
<circle cx="386" cy="183" r="1" fill="#21F2C0"/>
<circle cx="8" cy="197" r="1" fill="#21F2C0"/>
<circle cx="22" cy="197" r="1" fill="#21F2C0"/>
<circle cx="36" cy="197" r="1" fill="#21F2C0"/>
<circle cx="50" cy="197" r="1" fill="#21F2C0"/>
<circle cx="64" cy="197" r="1" fill="#21F2C0"/>
<circle cx="78" cy="197" r="1" fill="#21F2C0"/>
<circle cx="92" cy="197" r="1" fill="#21F2C0"/>
<circle cx="106" cy="197" r="1" fill="#21F2C0"/>
<circle cx="120" cy="197" r="1" fill="#21F2C0"/>
<circle cx="134" cy="197" r="1" fill="#21F2C0"/>
<circle cx="148" cy="197" r="1" fill="#21F2C0"/>
<circle cx="162" cy="197" r="1" fill="#21F2C0"/>
<circle cx="176" cy="197" r="1" fill="#21F2C0"/>
<circle cx="190" cy="197" r="1" fill="#21F2C0"/>
<circle cx="204" cy="197" r="1" fill="#21F2C0"/>
<circle cx="218" cy="197" r="1" fill="#21F2C0"/>
<circle cx="232" cy="197" r="1" fill="#21F2C0"/>
<circle cx="246" cy="197" r="1" fill="#21F2C0"/>
<circle cx="260" cy="197" r="1" fill="#21F2C0"/>
<circle cx="274" cy="197" r="1" fill="#21F2C0"/>
<circle cx="288" cy="197" r="1" fill="#21F2C0"/>
<circle cx="302" cy="197" r="1" fill="#21F2C0"/>
<circle cx="316" cy="197" r="1" fill="#21F2C0"/>
<circle cx="330" cy="197" r="1" fill="#21F2C0"/>
<circle cx="344" cy="197" r="1" fill="#21F2C0"/>
<circle cx="358" cy="197" r="1" fill="#21F2C0"/>
<circle cx="372" cy="197" r="1" fill="#21F2C0"/>
<circle cx="386" cy="197" r="1" fill="#21F2C0"/>
<circle cx="8" cy="211" r="1" fill="#21F2C0"/>
<circle cx="22" cy="211" r="1" fill="#21F2C0"/>
<circle cx="36" cy="211" r="1" fill="#21F2C0"/>
<circle cx="50" cy="211" r="1" fill="#21F2C0"/>
<circle cx="64" cy="211" r="1" fill="#21F2C0"/>
<circle cx="78" cy="211" r="1" fill="#21F2C0"/>
<circle cx="92" cy="211" r="1" fill="#21F2C0"/>
<circle cx="106" cy="211" r="1" fill="#21F2C0"/>
<circle cx="120" cy="211" r="1" fill="#21F2C0"/>
<circle cx="134" cy="211" r="1" fill="#21F2C0"/>
<circle cx="148" cy="211" r="1" fill="#21F2C0"/>
<circle cx="162" cy="211" r="1" fill="#21F2C0"/>
<circle cx="176" cy="211" r="1" fill="#21F2C0"/>
<circle cx="190" cy="211" r="1" fill="#21F2C0"/>
<circle cx="204" cy="211" r="1" fill="#21F2C0"/>
<circle cx="218" cy="211" r="1" fill="#21F2C0"/>
<circle cx="232" cy="211" r="1" fill="#21F2C0"/>
<circle cx="246" cy="211" r="1" fill="#21F2C0"/>
<circle cx="260" cy="211" r="1" fill="#21F2C0"/>
<circle cx="274" cy="211" r="1" fill="#21F2C0"/>
<circle cx="288" cy="211" r="1" fill="#21F2C0"/>
<circle cx="302" cy="211" r="1" fill="#21F2C0"/>
<circle cx="316" cy="211" r="1" fill="#21F2C0"/>
<circle cx="330" cy="211" r="1" fill="#21F2C0"/>
<circle cx="344" cy="211" r="1" fill="#21F2C0"/>
<circle cx="358" cy="211" r="1" fill="#21F2C0"/>
<circle cx="372" cy="211" r="1" fill="#21F2C0"/>
<circle cx="386" cy="211" r="1" fill="#21F2C0"/>
<circle cx="8" cy="225" r="1" fill="#21F2C0"/>
<circle cx="22" cy="225" r="1" fill="#21F2C0"/>
<circle cx="36" cy="225" r="1" fill="#21F2C0"/>
<circle cx="50" cy="225" r="1" fill="#21F2C0"/>
<circle cx="64" cy="225" r="1" fill="#21F2C0"/>
<circle cx="78" cy="225" r="1" fill="#21F2C0"/>
<circle cx="92" cy="225" r="1" fill="#21F2C0"/>
<circle cx="106" cy="225" r="1" fill="#21F2C0"/>
<circle cx="120" cy="225" r="1" fill="#21F2C0"/>
<circle cx="134" cy="225" r="1" fill="#21F2C0"/>
<circle cx="148" cy="225" r="1" fill="#21F2C0"/>
<circle cx="162" cy="225" r="1" fill="#21F2C0"/>
<circle cx="176" cy="225" r="1" fill="#21F2C0"/>
<circle cx="190" cy="225" r="1" fill="#21F2C0"/>
<circle cx="204" cy="225" r="1" fill="#21F2C0"/>
<circle cx="218" cy="225" r="1" fill="#21F2C0"/>
<circle cx="232" cy="225" r="1" fill="#21F2C0"/>
<circle cx="246" cy="225" r="1" fill="#21F2C0"/>
<circle cx="260" cy="225" r="1" fill="#21F2C0"/>
<circle cx="274" cy="225" r="1" fill="#21F2C0"/>
<circle cx="288" cy="225" r="1" fill="#21F2C0"/>
<circle cx="302" cy="225" r="1" fill="#21F2C0"/>
<circle cx="316" cy="225" r="1" fill="#21F2C0"/>
<circle cx="330" cy="225" r="1" fill="#21F2C0"/>
<circle cx="344" cy="225" r="1" fill="#21F2C0"/>
<circle cx="358" cy="225" r="1" fill="#21F2C0"/>
<circle cx="372" cy="225" r="1" fill="#21F2C0"/>
<circle cx="386" cy="225" r="1" fill="#21F2C0"/>
</g>
</g>
<defs>
<clipPath id="clip0_2579_29322">
<rect width="393" height="238" fill="white"/>
</clipPath>
</defs>
</svg>
