<svg width="25" height="25" viewBox="0 0 25 25" fill="none" xmlns="http://www.w3.org/2000/svg">
<g clip-path="url(#clip0_48_1150)">
<path d="M12.9805 3.04972C16.1845 3.04972 16.5645 3.06172 17.8305 3.11972C21.0825 3.26772 22.6015 4.81072 22.7495 8.03872C22.8075 9.30372 22.8185 9.68372 22.8185 12.8877C22.8185 16.0927 22.8065 16.4717 22.7495 17.7367C22.6005 20.9617 21.0855 22.5077 17.8305 22.6557C16.5645 22.7137 16.1865 22.7257 12.9805 22.7257C9.77647 22.7257 9.39647 22.7137 8.13147 22.6557C4.87147 22.5067 3.36047 20.9567 3.21247 17.7357C3.15447 16.4707 3.14247 16.0917 3.14247 12.8867C3.14247 9.68272 3.15547 9.30372 3.21247 8.03772C3.36147 4.81072 4.87647 3.26672 8.13147 3.11872C9.39747 3.06172 9.77647 3.04972 12.9805 3.04972ZM12.9805 0.886719C9.72147 0.886719 9.31347 0.900719 8.03347 0.958719C3.67547 1.15872 1.25347 3.57672 1.05347 7.93872C0.994469 9.21972 0.980469 9.62772 0.980469 12.8867C0.980469 16.1457 0.994469 16.5547 1.05247 17.8347C1.25247 22.1927 3.67047 24.6147 8.03247 24.8147C9.31347 24.8727 9.72147 24.8867 12.9805 24.8867C16.2395 24.8867 16.6485 24.8727 17.9285 24.8147C22.2825 24.6147 24.7105 22.1967 24.9075 17.8347C24.9665 16.5547 24.9805 16.1457 24.9805 12.8867C24.9805 9.62772 24.9665 9.21972 24.9085 7.93972C24.7125 3.58572 22.2915 1.15972 17.9295 0.959719C16.6485 0.900719 16.2395 0.886719 12.9805 0.886719ZM12.9805 6.72472C9.57747 6.72472 6.81847 9.48372 6.81847 12.8867C6.81847 16.2897 9.57747 19.0497 12.9805 19.0497C16.3835 19.0497 19.1425 16.2907 19.1425 12.8867C19.1425 9.48372 16.3835 6.72472 12.9805 6.72472ZM12.9805 16.8867C10.7715 16.8867 8.98047 15.0967 8.98047 12.8867C8.98047 10.6777 10.7715 8.88672 12.9805 8.88672C15.1895 8.88672 16.9805 10.6777 16.9805 12.8867C16.9805 15.0967 15.1895 16.8867 12.9805 16.8867ZM19.3865 5.04172C18.5905 5.04172 17.9455 5.68672 17.9455 6.48172C17.9455 7.27672 18.5905 7.92172 19.3865 7.92172C20.1815 7.92172 20.8255 7.27672 20.8255 6.48172C20.8255 5.68672 20.1815 5.04172 19.3865 5.04172Z" fill="#1E1E1E"/>
</g>
<defs>
<clipPath id="clip0_48_1150">
<rect width="24" height="24" fill="white" transform="translate(0.980469 0.886719)"/>
</clipPath>
</defs>
</svg>
