<svg width="25" height="25" viewBox="0 0 25 25" fill="none" xmlns="http://www.w3.org/2000/svg">
<g clip-path="url(#clip0_48_1154)">
<path d="M19.9805 0.886719H5.98047C3.21947 0.886719 0.980469 3.12572 0.980469 5.88672V19.8867C0.980469 22.6477 3.21947 24.8867 5.98047 24.8867H19.9805C22.7425 24.8867 24.9805 22.6477 24.9805 19.8867V5.88672C24.9805 3.12572 22.7425 0.886719 19.9805 0.886719ZM8.98047 19.8867H5.98047V8.88672H8.98047V19.8867ZM7.48047 7.61872C6.51447 7.61872 5.73047 6.82872 5.73047 5.85472C5.73047 4.88072 6.51447 4.09072 7.48047 4.09072C8.44647 4.09072 9.23047 4.88072 9.23047 5.85472C9.23047 6.82872 8.44747 7.61872 7.48047 7.61872ZM20.9805 19.8867H17.9805V14.2827C17.9805 10.9147 13.9805 11.1697 13.9805 14.2827V19.8867H10.9805V8.88672H13.9805V10.6517C15.3765 8.06572 20.9805 7.87472 20.9805 13.1277V19.8867Z" fill="#1E1E1E"/>
</g>
<defs>
<clipPath id="clip0_48_1154">
<rect width="24" height="24" fill="white" transform="translate(0.980469 0.886719)"/>
</clipPath>
</defs>
</svg>
